<?xml version="1.0" encoding="utf-8"?>
<svg xmlns="http://www.w3.org/2000/svg" height="500" viewBox="0 0 2000 2000" width="500">
<defs>
<radialGradient cx="782.42" cy="1292.40" gradientUnits="userSpaceOnUse" id="grad5" r="177.80">
<stop offset="0.0667" stop-color="#ffffff"/>
<stop offset="0.4000" stop-color="#ffffff"/>
<stop offset="0.5333" stop-color="#fcfcfc"/>
<stop offset="0.7333" stop-color="#feffff"/>
<stop offset="1.0000" stop-color="#fcfcfc"/>
</radialGradient>
</defs>
<path d="M968.29 446 c-.49 1.86 -1.36 2 -12.41 2 -11.22 0 -11.88 .11 -11.88 2 0 1.83&#xA;-.67 2 -8 2 -7.33 0 -8 .17 -8 2 0 1.76 -.67 2 -5.59 2 -4.75 0 -5.67 .3&#xA;-6.12 2 -.44 1.69 -1.36 2 -6 2 -4.64 0 -5.56 .31 -6 2 -.44 1.69 -1.36 2 -6&#xA;2 -4.64 0 -5.56 .31 -6 2 -.45 1.71 -1.36 2 -6.41 2 -5.22 0 -5.88 .23 -5.88&#xA;2 0 1.67 -.67 2 -4 2 -3.33 0 -4 .33 -4 2 0 1.67 -.67 2 -4 2 -3.33 0 -4 .33&#xA;-4 2 0 1.67 -.67 2 -4 2 -3.33 0 -4 .33 -4 2 0 1.67 -.67 2 -4 2 -3.33 0 -4&#xA;.33 -4 2 0 1.33 -.67 2 -2 2 -1.33 0 -2 .67 -2 2 0 1.63 -.67 2 -3.59 2 -2.75&#xA;0 -3.72 .47 -4.12 2 -.41 1.57 -1.36 2 -4.41 2 -3.22 0 -3.88 .34 -3.88 2 0&#xA;1.33 -.67 2 -2 2 -1.33 0 -2 .67 -2 2 0 1.67 -.67 2 -4 2 -3.25 0 -4 .35 -4&#xA;1.88 0 1.04 -.89 2.12 -2 2.41 -1.1 .29 -2 1.24 -2 2.12 0 .93 -.84 1.59 -2&#xA;1.59 -1.33 0 -2 .67 -2 2 0 1.67 -.67 2 -4 2 -3.33 0 -4 .33 -4 2 0 1.33 -.67&#xA;2 -2 2 -1.33 0 -2 .67 -2 2 0 1.33 -.67 2 -2 2 -1.33 0 -2 .67 -2 2 0 1.33&#xA;-.67 2 -2 2 -1.33 0 -2 .67 -2 2 0 1.33 -.67 2 -2 2 -1.33 0 -2 .67 -2 2 0&#xA;1.16 -.67 2 -1.59 2 -.88 0 -1.83 .9 -2.12 2 -.29 1.1 -1.19 2 -2 2 -.81 0&#xA;-1.71 .9 -2 2 -.29 1.1 -1.19 2 -2 2 -.81 0 -1.71 .9 -2 2 -.29 1.1 -1.19 2&#xA;-2 2 -.81 0 -1.71 .9 -2 2 -.29 1.11 -1.36 2 -2.41 2 -1.22 0 -1.88 .71 -1.88&#xA;2 0 1.33 -.67 2 -2 2 -1.33 0 -2 .67 -2 2 0 1.33 -.67 2 -2 2 -1.67 0 -2 .67&#xA;-2 4 0 3.33 -.33 4 -2 4 -1.33 0 -2 .67 -2 2 0 1.33 -.67 2 -2 2 -1.33 0 -2&#xA;.67 -2 2 0 1.33 -.67 2 -2 2 -1.33 0 -2 .67 -2 2 0 1.33 -.67 2 -2 2 -1.67 0&#xA;-2 .67 -2 4 0 2.99 -.4 4 -1.59 4 -.88 0 -1.83 .9 -2.12 2 -.29 1.11 -1.36 2&#xA;-2.41 2 -1.53 0 -1.88 .75 -1.88 4 0 2.99 -.4 4 -1.59 4 -.88 0 -1.83 .9&#xA;-2.12 2 -.29 1.11 -1.36 2 -2.41 2 -1.53 0 -1.88 .75 -1.88 4 0 3.33 -.33 4&#xA;-2 4 -1.67 0 -2 .67 -2 4 0 3.33 -.33 4 -2 4 -1.67 0 -2 .67 -2 4 0 3.33 -.33&#xA;4 -2 4 -1.67 0 -2 .67 -2 4 0 3.33 -.33 4 -2 4 -1.67 0 -2 .67 -2 4 0 3.33&#xA;-.33 4 -2 4 -1.67 0 -2 .67 -2 4 0 3.33 -.33 4 -2 4 -1.78 0 -2 .67 -2 6 0&#xA;5.33 -.22 6 -2 6 -1.77 0 -2 .67 -2 5.88 0 5.04 -.29 5.96 -2 6.41 -1.69 .44&#xA;-2 1.36 -2 6 0 4.64 -.31 5.56 -2 6 -1.78 .47 -2 1.36 -2 8.12 0 6.93 -.18&#xA;7.59 -2 7.59 -1.83 0 -2 .67 -2 8 0 7.33 -.17 8 -2 8 -1.87 0 -2 .67 -2 10 0&#xA;9.33 -.13 10 -2 10 -1.97 0 -2 .67 -2 44 0 43.33 .03 44 2 44 1.87 0 2 .67 2&#xA;10 0 9.33 .13 10 2 10 1.82 0 2 .67 2 7.59 0 6.75 .22 7.65 2 8.12 1.78 .46 2&#xA;1.36 2 8 0 6.64 .22 7.54 2 8 1.79 .47 2 1.36 2 8.41 0 7.22 .17 7.88 2 7.88&#xA;1.63 0 2 .67 2 3.59 0 2.75 .47 3.72 2 4.12 1.71 .45 2 1.36 2 6.41 0 5.22&#xA;.23 5.88 2 5.88 1.67 0 2 .67 2 4 0 3.33 .33 4 2 4 1.67 0 2 .67 2 4 0 3.33&#xA;.33 4 2 4 1.67 0 2 .67 2 4 0 3.33 .33 4 2 4 1.67 0 2 .67 2 4 0 3.33 .33 4 2&#xA;4 1.33 0 2 .67 2 2 0 1.33 .67 2 2 2 1.63 0 2 .67 2 3.59 0 2.75 .47 3.72 2&#xA;4.12 1.57 .41 2 1.36 2 4.41 0 3.14 .36 3.88 1.88 3.88 1.04 -0 2.12 .89 2.41&#xA;2 .29 1.1 1.24 2 2.12 2 1.19 0 1.59 1.01 1.59 4 0 3.25 .35 4 1.88 4 1.04 -0&#xA;2.12 .89 2.41 2 .29 1.1 1.24 2 2.12 2 1.19 0 1.59 1.01 1.59 4 0 3.25 .35 4&#xA;1.88 4 1.04 0 2.12 .89 2.41 2 .29 1.1 1.24 2 2.12 2 .93 0 1.59 .84 1.59 2 0&#xA;1.33 .67 2 2 2 1.67 0 2 .67 2 4 l0 4 4 0 4 0 0 4 c0 3.33 .33 4 2 4 1.33 0 2&#xA;.67 2 2 0 1.33 .67 2 2 2 1.33 0 2 .67 2 2 0 1.33 .67 2 2 2 1.33 0 2 .67 2 2&#xA;0 1.33 .67 2 2 2 1.33 0 2 .67 2 2 0 1.33 .67 2 2 2 1.33 0 2 .67 2 2 0 1.33&#xA;.67 2 2 2 1.33 0 2 .67 2 2 0 1.33 .67 2 2 2 1.33 0 2 .67 2 2 0 1.33 .67 2 2&#xA;2 1.33 0 2 .67 2 2 0 1.33 .67 2 2 2 1.33 0 2 .67 2 2 0 1.66 .67 2 3.88 2&#xA;3.04 -0 4 .43 4.41 2 .29 1.1 1.24 2 2.12 2 .93 0 1.59 .84 1.59 2 0 1.67 .67&#xA;2 4 2 3.33 0 4 .33 4 2 0 1.29 .67 2 1.88 2 1.04 0 2.12 .89 2.41 2 .29 1.1&#xA;1.24 2 2.12 2 .93 0 1.59 .84 1.59 2 0 1.67 .67 2 4 2 3.33 0 4 .33 4 2 0&#xA;1.66 .67 2 3.88 2 3.04 0 4 .43 4.41 2 .29 1.1 1.24 2 2.12 2 .93 0 1.59 .84&#xA;1.59 2 0 1.67 .67 2 4 2 3.33 0 4 .33 4 2 0 1.67 .67 2 4 2 3.33 0 4 .33 4 2&#xA;0 1.67 .67 2 4 2 3.33 0 4 .33 4 2 0 1.67 .67 2 4 2 3.33 0 4 .33 4 2 0 1.67&#xA;.67 2 4 2 3.33 0 4 .33 4 2 0 1.78 .67 2 6 2 5.33 0 6 .22 6 2 0 1.78 .67 2 6&#xA;2 5.33 0 6 .22 6 2 0 1.78 .67 2 6 2 5.33 0 6 .22 6 2 0 1.78 .67 2 6 2 5.33&#xA;0 6 .22 6 2 0 1.89 .67 2 12 2 11.33 0 12 .11 12 2 0 1.89 .67 2 12 2 11.33 0&#xA;12 .11 12 2 0 1.96 .67 2 32 2 31.33 0 32 -.04 32 -2 0 -1.9 .67 -2 14 -2&#xA;13.33 0 14 -.1 14 -2 0 -1.87 .67 -2 10 -2 9.33 0 10 -.13 10 -2 0 -1.78 .67&#xA;-2 6 -2 5.33 0 6 -.22 6 -2 0 -1.78 .67 -2 6 -2 5.33 0 6 -.22 6 -2 0 -1.78&#xA;.67 -2 6 -2 5.33 0 6 -.22 6 -2 0 -1.78 .67 -2 6 -2 5.33 0 6 -.22 6 -2 0&#xA;-1.67 .67 -2 4 -2 3.33 0 4 -.33 4 -2 0 -1.67 .67 -2 4 -2 3.33 0 4 -.33 4 -2&#xA;0 -1.67 .67 -2 4 -2 3.33 0 4 -.33 4 -2 0 -1.67 .67 -2 4 -2 3.33 0 4 -.33 4&#xA;-2 0 -1.67 .67 -2 4 -2 3.33 0 4 -.33 4 -2 0 -1.67 .67 -2 4 -2 3.33 0 4 -.33&#xA;4 -2 0 -1.33 .67 -2 2 -2 1.33 0 2 -.67 2 -2 0 -1.67 .67 -2 4 -2 3.33 0 4&#xA;-.33 4 -2 0 -1.33 .67 -2 2 -2 1.33 0 2 -.67 2 -2 0 -1.67 .67 -2 4 -2 3.33 0&#xA;4 -.33 4 -2 0 -1.33 .67 -2 2 -2 1.33 0 2 -.67 2 -2 0 -1.33 .67 -2 2 -2 1.33&#xA;0 2 -.67 2 -2 0 -1.67 .67 -2 4 -2 3.33 0 4 -.33 4 -2 0 -1.33 .67 -2 2 -2&#xA;1.33 0 2 -.67 2 -2 0 -1.33 .67 -2 2 -2 1.33 0 2 -.67 2 -2 0 -1.33 .67 -2 2&#xA;-2 1.33 0 2 -.67 2 -2 0 -1.33 .67 -2 2 -2 1.33 0 2 -.67 2 -2 0 -1.33 .67 -2&#xA;2 -2 1.33 0 2 -.67 2 -2 0 -1.33 .67 -2 2 -2 1.33 0 2 -.67 2 -2 0 -1.33 .67&#xA;-2 2 -2 1.33 0 2 -.67 2 -2 0 -1.33 .67 -2 2 -2 1.33 0 2 -.67 2 -2 0 -1.33&#xA;.67 -2 2 -2 1.33 0 2 -.67 2 -2 0 -1.33 .67 -2 2 -2 1.33 0 2 -.67 2 -2 0&#xA;-1.33 .67 -2 2 -2 1.67 0 2 -.67 2 -4 0 -3.33 .33 -4 2 -4 1.33 0 2 -.67 2 -2&#xA;0 -1.29 -.67 -2 -1.88 -2 -1.04 0 -2.12 -.89 -2.41 -2 -.4 -1.52 -1.36 -2 -4&#xA;-2 -2.64 -0 -3.6 -.48 -4 -2 -.4 -1.52 -1.36 -2 -4 -2 -2.64 0 -3.6 -.48 -4&#xA;-2 -.4 -1.53 -1.36 -2 -4.12 -2 -2.93 0 -3.59 -.37 -3.59 -2 0 -1.77 -.67 -2&#xA;-5.88 -2 -5.04 0 -5.96 -.29 -6.41 -2 -.4 -1.53 -1.36 -2 -4.12 -2 -2.93 0&#xA;-3.59 -.37 -3.59 -2 0 -1.78 -.67 -2 -6 -2 -5.33 0 -6 -.22 -6 -2 0 -1.16&#xA;-.67 -2 -1.59 -2 -.88 0 -1.83 .9 -2.12 2 -.41 1.57 -1.36 2 -4.41 2 -3.86 0&#xA;-3.88 .02 -3.88 4 l0 4 -4 0 -4 0 0 4 c0 3.33 -.33 4 -2 4 -1.33 0 -2 .67 -2&#xA;2 0 1.67 -.67 2 -4 2 l-4 0 0 4 0 4 -4 0 c-3.33 0 -4 .33 -4 2 0 1.16 -.67 2&#xA;-1.59 2 -.88 0 -1.83 .9 -2.12 2 -.41 1.57 -1.36 2 -4.41 2 -3.22 0 -3.88 .34&#xA;-3.88 2 0 1.33 -.67 2 -2 2 -1.33 0 -2 .67 -2 2 0 1.16 -.67 2 -1.59 2 -.88 0&#xA;-1.83 .9 -2.12 2 -.41 1.57 -1.36 2 -4.41 2 -3.22 0 -3.88 .34 -3.88 2 0 1.33&#xA;-.67 2 -2 2 -1.33 0 -2 .67 -2 2 0 1.78 -.67 2 -6 2 -5.33 0 -6 .22 -6 2 0&#xA;1.16 -.67 2 -1.59 2 -.88 0 -1.83 .9 -2.12 2 -.4 1.52 -1.36 2 -4 2 -2.64 0&#xA;-3.6 .48 -4 2 -.45 1.71 -1.36 2 -6.41 2 -5.22 0 -5.88 .23 -5.88 2 0 1.63&#xA;-.67 2 -3.59 2 -2.75 0 -3.72 .47 -4.12 2 -.47 1.79 -1.36 2 -8.41 2 -7.22 0&#xA;-7.88 .17 -7.88 2 0 1.87 -.67 2 -10 2 -9.33 0 -10 .13 -10 2 0 1.93 -.67 2&#xA;-18 2 -17.33 0 -18 .07 -18 2 0 1.83 -.67 2 -8 2 -7.33 0 -8 -.17 -8 -2 0&#xA;-1.92 -.67 -2 -16 -2 -15.33 0 -16 -.08 -16 -2 0 -1.87 -.67 -2 -10 -2 -9.33&#xA;0 -10 -.13 -10 -2 0 -1.78 -.67 -2 -6 -2 -5.33 0 -6 -.22 -6 -2 0 -1.78 -.67&#xA;-2 -6 -2 -5.33 0 -6 -.22 -6 -2 0 -1.67 -.67 -2 -4 -2 -3.33 0 -4 -.33 -4 -2&#xA;0 -1.67 -.67 -2 -4 -2 -3.33 0 -4 -.33 -4 -2 0 -1.67 -.67 -2 -4 -2 -3.33 0&#xA;-4 -.33 -4 -2 0 -1.66 -.67 -2 -3.88 -2 -3.04 0 -4 -.43 -4.41 -2 -.29 -1.1&#xA;-1.24 -2 -2.12 -2 -.93 0 -1.59 -.84 -1.59 -2 0 -1.66 -.67 -2 -3.88 -2 -3.04&#xA;0 -4 -.43 -4.41 -2 -.29 -1.1 -1.24 -2 -2.12 -2 -.93 0 -1.59 -.84 -1.59 -2 0&#xA;-1.33 -.67 -2 -2 -2 -1.33 0 -2 -.67 -2 -2 0 -1.67 -.67 -2 -4 -2 -3.33 0 -4&#xA;-.33 -4 -2 0 -1.33 -.67 -2 -2 -2 -1.33 0 -2 -.67 -2 -2 0 -1.66 -.67 -2&#xA;-3.88 -2 -3.04 0 -4 -.43 -4.41 -2 -.29 -1.1 -1.24 -2 -2.12 -2 -.93 0 -1.59&#xA;-.84 -1.59 -2 0 -1.67 -.67 -2 -4 -2 -3.33 0 -4 -.33 -4 -2 0 -1.33 -.67 -2&#xA;-2 -2 -1.33 0 -2 -.67 -2 -2 0 -1.33 -.67 -2 -2 -2 -1.33 0 -2 -.67 -2 -2 0&#xA;-1.29 -.67 -2 -1.88 -2 -1.04 -0 -2.12 -.89 -2.41 -2 -.29 -1.1 -1.19 -2 -2&#xA;-2 -.81 0 -1.71 -.9 -2 -2 -.29 -1.1 -1.19 -2 -2 -2 -.81 0 -1.71 -.9 -2 -2&#xA;-.29 -1.1 -1.19 -2 -2 -2 -.81 0 -1.71 -.9 -2 -2 -.29 -1.1 -1.24 -2 -2.12 -2&#xA;-1.19 0 -1.59 -1.01 -1.59 -4 0 -3.33 -.33 -4 -2 -4 -1.33 0 -2 -.67 -2 -2 0&#xA;-1.33 -.67 -2 -2 -2 -1.33 0 -2 -.67 -2 -2 0 -1.33 -.67 -2 -2 -2 -1.16 0 -2&#xA;-.67 -2 -1.59 0 -.88 -.9 -1.83 -2 -2.12 -1.57 -.41 -2 -1.36 -2 -4.41 0&#xA;-3.22 -.34 -3.88 -2 -3.88 -1.33 0 -2 -.67 -2 -2 0 -1.33 -.67 -2 -2 -2 -1.67&#xA;0 -2 -.67 -2 -4 0 -3.33 -.33 -4 -2 -4 -1.33 0 -2 -.67 -2 -2 0 -1.33 -.67 -2&#xA;-2 -2 -1.67 0 -2 -.67 -2 -4 0 -3.33 -.33 -4 -2 -4 -1.67 0 -2 -.67 -2 -4 0&#xA;-3.33 -.33 -4 -2 -4 -1.67 0 -2 -.67 -2 -4 0 -3.33 -.33 -4 -2 -4 -1.78 0 -2&#xA;-.67 -2 -6 0 -5.33 -.22 -6 -2 -6 -1.67 0 -2 -.67 -2 -4 0 -3.33 -.33 -4 -2&#xA;-4 -1.78 0 -2 -.67 -2 -6 0 -5.33 -.22 -6 -2 -6 -1.83 0 -2 -.67 -2 -8 0&#xA;-7.33 -.17 -8 -2 -8 -1.87 0 -2 -.67 -2 -10 0 -9.33 -.13 -10 -2 -10 -1.96 0&#xA;-2 -.67 -2 -38 0 -37.33 .04 -38 2 -38 1.87 0 2 -.67 2 -10 0 -9.33 .13 -10 2&#xA;-10 1.83 0 2 -.67 2 -8 0 -7.33 .17 -8 2 -8 1.78 0 2 -.67 2 -6 0 -5.33 .22&#xA;-6 2 -6 1.67 0 2 -.67 2 -4 0 -3.33 .33 -4 2 -4 1.78 0 2 -.67 2 -6 0 -5.33&#xA;.22 -6 2 -6 1.67 0 2 -.67 2 -4 0 -3.33 .33 -4 2 -4 1.67 0 2 -.67 2 -4 0&#xA;-3.33 .33 -4 2 -4 1.67 0 2 -.67 2 -4 0 -3.33 .33 -4 2 -4 1.33 0 2 -.67 2 -2&#xA;0 -1.33 .67 -2 2 -2 1.67 0 2 -.67 2 -4 0 -3.33 .33 -4 2 -4 1.33 0 2 -.67 2&#xA;-2 0 -1.33 .67 -2 2 -2 1.67 0 2 -.67 2 -4 0 -3.33 .33 -4 2 -4 1.33 0 2 -.67&#xA;2 -2 0 -1.33 .67 -2 2 -2 1.33 0 2 -.67 2 -2 0 -1.33 .67 -2 2 -2 1.33 0 2&#xA;-.67 2 -2 0 -1.33 .67 -2 2 -2 1.67 0 2 -.67 2 -4 0 -3.33 .33 -4 2 -4 1.33 0&#xA;2 -.67 2 -2 0 -1.33 .67 -2 2 -2 1.33 0 2 -.67 2 -2 0 -1.33 .67 -2 2 -2 1.33&#xA;0 2 -.67 2 -2 0 -1.33 .67 -2 2 -2 1.33 0 2 -.67 2 -2 0 -1.33 .67 -2 2 -2&#xA;1.33 0 2 -.67 2 -2 0 -1.67 .67 -2 4 -2 3.33 0 4 -.33 4 -2 0 -1.33 .67 -2 2&#xA;-2 1.33 0 2 -.67 2 -2 0 -1.33 .67 -2 2 -2 1.33 0 2 -.67 2 -2 0 -1.67 .67 -2&#xA;4 -2 3.33 0 4 -.33 4 -2 0 -1.33 .67 -2 2 -2 1.33 0 2 -.67 2 -2 0 -1.67 .67&#xA;-2 4 -2 3.33 0 4 -.33 4 -2 0 -1.33 .67 -2 2 -2 1.33 0 2 -.67 2 -2 0 -1.67&#xA;.67 -2 4 -2 3.33 0 4 -.33 4 -2 0 -1.67 .67 -2 4 -2 3.33 0 4 -.33 4 -2 0&#xA;-1.67 .67 -2 4 -2 3.33 0 4 -.33 4 -2 0 -1.78 .67 -2 6 -2 5.33 0 6 -.22 6 -2&#xA;0 -1.67 .67 -2 4 -2 3.33 0 4 -.33 4 -2 0 -1.83 .67 -2 8 -2 7.33 0 8 -.17 8&#xA;-2 0 -1.83 .67 -2 8 -2 7.33 0 8 -.17 8 -2 0 -1.97 .67 -2 48 -2 47.33 0 48&#xA;.03 48 2 0 1.83 .67 2 8 2 7.33 0 8 .17 8 2 0 1.78 .67 2 6 2 5.33 0 6 .22 6&#xA;2 0 1.78 .67 2 6 2 5.33 0 6 .22 6 2 0 1.67 .67 2 4 2 3.33 0 4 .33 4 2 0&#xA;1.78 .67 2 6 2 4.82 0 6 .31 6 1.59 0 .88 .9 1.83 2 2.12 1.11 .29 2 1.36 2&#xA;2.41 0 1.53 .75 1.88 4 1.88 3.33 0 4 .33 4 2 0 1.66 .67 2 3.88 2 3.04 0 4&#xA;.43 4.41 2 .29 1.1 1.24 2 2.12 2 .93 0 1.59 .84 1.59 2 0 1.66 .67 2 3.88 2&#xA;3.04 0 4 .43 4.41 2 .29 1.1 1.24 2 2.12 2 .93 0 1.59 .84 1.59 2 0 1.67 .67&#xA;2 4 2 l4 0 0 4 c0 3.98 .02 4 3.88 4 3.04 0 4 .43 4.41 2 .29 1.1 1.19 2 2 2&#xA;.81 0 1.71 .9 2 2 .29 1.1 1.24 2 2.12 2 .93 0 1.59 .84 1.59 2 0 1.33 .67 2&#xA;2 2 1.33 0 2 .67 2 2 0 1.33 .67 2 2 2 1.33 0 2 .67 2 2 0 1.89 .67 2 12 2&#xA;11.33 0 12 -.11 12 -2 0 -1.78 .67 -2 6 -2 5.33 0 6 -.22 6 -2 0 -1.83 .67 -2&#xA;8 -2 7.33 0 8 -.17 8 -2 0 -1.78 .67 -2 6 -2 5.33 0 6 -.22 6 -2 0 -1.78 .67&#xA;-2 6 -2 5.33 0 6 -.22 6 -2 0 -1.78 .67 -2 6 -2 5.33 0 6 -.22 6 -2 0 -1.78&#xA;.67 -2 6 -2 l6 0 0 -6 c0 -5.33 -.22 -6 -2 -6 -1.16 0 -2 -.67 -2 -1.59 0&#xA;-.88 -.9 -1.83 -2 -2.12 -1.57 -.41 -2 -1.36 -2 -4.41 0 -3.22 -.34 -3.88 -2&#xA;-3.88 -1.33 0 -2 -.67 -2 -2 0 -1.33 -.67 -2 -2 -2 -1.33 0 -2 -.67 -2 -2 0&#xA;-1.33 -.67 -2 -2 -2 -1.16 0 -2 -.67 -2 -1.59 0 -.88 -.9 -1.83 -2 -2.12 -1.1&#xA;-.29 -2 -1.19 -2 -2 0 -.81 -.9 -1.71 -2 -2 -1.11 -.29 -2 -1.36 -2 -2.41 0&#xA;-1.22 -.71 -1.88 -2 -1.88 -1.67 0 -2 -.67 -2 -4 l0 -4 -4 0 c-3.33 0 -4 -.33&#xA;-4 -2 0 -1.33 -.67 -2 -2 -2 -1.33 0 -2 -.67 -2 -2 0 -1.33 -.67 -2 -2 -2&#xA;-1.16 0 -2 -.67 -2 -1.59 0 -.88 -.9 -1.83 -2 -2.12 -1.1 -.29 -2 -1.19 -2 -2&#xA;0 -.81 -.9 -1.71 -2 -2 -1.11 -.29 -2 -1.36 -2 -2.41 0 -1.22 -.71 -1.88 -2&#xA;-1.88 -1.33 0 -2 -.67 -2 -2 0 -1.67 -.67 -2 -4 -2 -3.33 0 -4 -.33 -4 -2 0&#xA;-1.29 -.67 -2 -1.88 -2 -1.04 0 -2.12 -.89 -2.41 -2 -.29 -1.1 -1.24 -2 -2.12&#xA;-2 -.93 0 -1.59 -.84 -1.59 -2 0 -1.33 -.67 -2 -2 -2 -1.33 0 -2 -.67 -2 -2 0&#xA;-1.66 -.67 -2 -3.88 -2 -3.04 0 -4 -.43 -4.41 -2 -.29 -1.1 -1.24 -2 -2.12 -2&#xA;-.93 0 -1.59 -.84 -1.59 -2 0 -1.67 -.67 -2 -4 -2 -3.33 0 -4 -.33 -4 -2 0&#xA;-1.66 -.67 -2 -3.88 -2 -3.04 0 -4 -.43 -4.41 -2 -.4 -1.52 -1.36 -2 -4 -2&#xA;-2.64 0 -3.6 -.48 -4 -2 -.4 -1.52 -1.36 -2 -4 -2 -2.64 0 -3.6 -.48 -4 -2&#xA;-.4 -1.52 -1.36 -2 -4 -2 -2.64 0 -3.6 -.48 -4 -2 -.4 -1.53 -1.36 -2 -4.12&#xA;-2 -2.93 0 -3.59 -.37 -3.59 -2 0 -1.77 -.67 -2 -5.88 -2 -5.04 0 -5.96 -.29&#xA;-6.41 -2 -.4 -1.53 -1.36 -2 -4.12 -2 -2.93 0 -3.59 -.37 -3.59 -2 0 -1.78&#xA;-.67 -2 -6 -2 -5.33 0 -6 -.22 -6 -2 0 -1.78 -.67 -2 -6 -2 -5.33 0 -6 -.22&#xA;-6 -2 0 -1.87 -.67 -2 -10 -2 -9.33 0 -10 -.13 -10 -2 0 -1.89 -.67 -2 -11.88&#xA;-2 -11.04 0 -11.92 -.14 -12.41 -2 -.51 -1.96 -1.36 -2 -45.71 -2 -44.35 0&#xA;-45.2 .04 -45.71 2z M1220 686 c0 1.16 -.67 2 -1.59 2 -.88 0 -1.83 .9 -2.12&#xA;2 -.29 1.11 -1.36 2 -2.41 2 -1.22 0 -1.88 .71 -1.88 2 0 1.63 -.67 2 -3.59 2&#xA;-2.75 0 -3.72 .47 -4.12 2 -.41 1.57 -1.36 2 -4.41 2 -3.22 0 -3.88 .34 -3.88&#xA;2 0 1.33 -.67 2 -2 2 -1.33 0 -2 .67 -2 2 0 1.78 -.67 2 -6 2 -5.21 0 -6 .25&#xA;-6 1.88 0 1.04 -.89 2.12 -2 2.41 -1.1 .29 -2 1.24 -2 2.12 0 1.28 -1.18 1.59&#xA;-6 1.59 -5.33 0 -6 .22 -6 2 0 1.16 -.67 2 -1.59 2 -.88 0 -1.83 .9 -2.12 2&#xA;-.45 1.71 -1.36 2 -6.41 2 -5.22 0 -5.88 .23 -5.88 2 0 1.67 -.67 2 -4 2&#xA;-3.33 0 -4 .33 -4 2 0 1.63 -.67 2 -3.59 2 -2.75 0 -3.72 .47 -4.12 2 -.4&#xA;1.52 -1.36 2 -4 2 -2.64 0 -3.6 .48 -4 2 -.45 1.71 -1.36 2 -6.41 2 -5.22 0&#xA;-5.88 .23 -5.88 2 0 1.63 -.67 2 -3.59 2 -2.75 0 -3.72 .47 -4.12 2 -.4 1.52&#xA;-1.36 2 -4 2 -2.64 0 -3.6 .48 -4 2 -.45 1.71 -1.36 2 -6.41 2 -5.22 0 -5.88&#xA;.23 -5.88 2 0 1.63 -.67 2 -3.59 2 -2.75 0 -3.72 .47 -4.12 2 -.45 1.71 -1.36&#xA;2 -6.41 2 -5.22 0 -5.88 .23 -5.88 2 0 1.67 -.67 2 -4 2 -3.33 0 -4 .33 -4 2&#xA;0 1.78 -.67 2 -6 2 -5.33 0 -6 .22 -6 2 0 1.63 -.67 2 -3.59 2 -2.75 0 -3.72&#xA;.47 -4.12 2 -.45 1.71 -1.36 2 -6.41 2 -5.22 0 -5.88 .23 -5.88 2 0 1.67 -.67&#xA;2 -4 2 -3.33 0 -4 .33 -4 2 0 1.33 -.67 2 -2 2 -1.29 0 -2 .67 -2 1.88 0 1.04&#xA;-.89 2.12 -2 2.41 -1.7 .44 -2 1.36 -2 6.12 0 4.93 -.24 5.59 -2 5.59 -1.78 0&#xA;-2 .67 -2 6 0 5.33 -.22 6 -2 6 -1.83 0 -2 .67 -2 7.88 0 7.04 -.21 7.94 -2&#xA;8.41 -1.69 .44 -2 1.36 -2 6 0 4.64 -.31 5.56 -2 6 -1.69 .44 -2 1.36 -2 6 0&#xA;4.64 -.31 5.56 -2 6 -1.53 .4 -2 1.36 -2 4.12 0 2.93 -.37 3.59 -2 3.59 -1.77&#xA;0 -2 .67 -2 5.88 0 5.04 -.29 5.96 -2 6.41 -1.53 .4 -2 1.36 -2 4.12 0 2.93&#xA;-.37 3.59 -2 3.59 -1.67 0 -2 .67 -2 4 0 3.33 -.33 4 -2 4 -1.67 0 -2 .67 -2&#xA;4 0 3.33 -.33 4 -2 4 -1.67 0 -2 .67 -2 4 0 3.33 -.33 4 -2 4 -1.67 0 -2 .67&#xA;-2 4 0 3.33 -.33 4 -2 4 -1.67 0 -2 .67 -2 4 0 3.33 -.33 4 -2 4 -1.67 0 -2&#xA;.67 -2 4 0 2.99 -.4 4 -1.59 4 -.88 0 -1.83 .9 -2.12 2 -.29 1.11 -1.36 2&#xA;-2.41 2 -1.52 0 -1.88 .75 -1.88 3.88 0 3.04 -.43 4 -2 4.41 -1.1 .29 -2 1.24&#xA;-2 2.12 0 .93 -.84 1.59 -2 1.59 -1.67 0 -2 .67 -2 4 0 3.33 -.33 4 -2 4&#xA;-1.29 0 -2 .67 -2 1.88 0 1.04 -.89 2.12 -2 2.41 -1.1 .29 -2 1.24 -2 2.12 0&#xA;.93 -.84 1.59 -2 1.59 -1.67 0 -2 .67 -2 4 0 3.33 -.33 4 -2 4 -1.33 0 -2 .67&#xA;-2 2 0 1.33 -.67 2 -2 2 -1.29 0 -2 .67 -2 1.88 0 1.04 -.89 2.12 -2 2.41&#xA;-1.1 .29 -2 1.19 -2 2 0 .81 -.9 1.71 -2 2 -1.1 .29 -2 1.19 -2 2 0 .81 -.9&#xA;1.71 -2 2 -1.1 .29 -2 1.19 -2 2 0 .81 -.9 1.71 -2 2 -1.1 .29 -2 1.24 -2&#xA;2.12 0 .93 -.84 1.59 -2 1.59 -1.67 0 -2 .67 -2 4 0 3.98 .02 4 3.88 4 3.04 0&#xA;4 .43 4.41 2 .29 1.1 1.24 2 2.12 2 .93 0 1.59 .84 1.59 2 0 1.67 .67 2 4 2&#xA;3.33 0 4 .33 4 2 0 1.67 .67 2 4 2 3.33 0 4 .33 4 2 0 1.67 .67 2 4 2 3.33 0&#xA;4 .33 4 2 0 1.67 .67 2 4 2 3.33 0 4 .33 4 2 0 1.67 .67 2 4 2 3.33 0 4 .33 4&#xA;2 0 1.83 .67 2 8 2 7.33 0 8 .17 8 2 0 1.83 .67 2 8 2 7.33 0 8 .17 8 2 0&#xA;1.83 .67 2 8 2 7.33 0 8 .17 8 2 0 1.92 .67 2 16 2 15.33 0 16 -.08 16 -2 0&#xA;-1.33 .67 -2 2 -2 1.33 0 2 -.67 2 -2 0 -1.33 .67 -2 2 -2 1.33 0 2 -.67 2 -2&#xA;0 -1.33 .67 -2 2 -2 1.33 0 2 -.67 2 -2 0 -1.33 .67 -2 2 -2 1.33 0 2 -.67 2&#xA;-2 0 -1.33 .67 -2 2 -2 1.33 0 2 -.67 2 -2 0 -1.33 .67 -2 2 -2 1.33 0 2 -.67&#xA;2 -2 0 -1.33 .67 -2 2 -2 1.33 0 2 -.67 2 -2 0 -1.33 .67 -2 2 -2 1.33 0 2&#xA;-.67 2 -2 0 -1.33 .67 -2 2 -2 1.33 0 2 -.67 2 -2 0 -1.33 .67 -2 2 -2 1.33 0&#xA;2 -.67 2 -2 0 -1.67 .67 -2 4 -2 3.33 0 4 -.33 4 -2 0 -1.33 .67 -2 2 -2 1.33&#xA;0 2 -.67 2 -2 0 -1.33 .67 -2 2 -2 1.33 0 2 -.67 2 -2 0 -1.33 .67 -2 2 -2&#xA;1.33 0 2 -.67 2 -2 0 -1.67 .67 -2 4 -2 3.33 0 4 -.33 4 -2 0 -1.33 .67 -2 2&#xA;-2 1.33 0 2 -.67 2 -2 0 -1.67 .67 -2 4 -2 3.33 0 4 -.33 4 -2 0 -1.67 .67 -2&#xA;4 -2 3.33 0 4 -.33 4 -2 0 -1.33 .67 -2 2 -2 1.33 0 2 -.67 2 -2 0 -1.67 .67&#xA;-2 4 -2 3.33 0 4 -.33 4 -2 0 -1.67 .67 -2 4 -2 3.33 0 4 -.33 4 -2 0 -1.33&#xA;.67 -2 2 -2 1.33 0 2 -.67 2 -2 0 -1.67 .67 -2 4 -2 3.33 0 4 -.33 4 -2 0&#xA;-1.67 .67 -2 4 -2 3.33 0 4 -.33 4 -2 0 -1.67 .67 -2 4 -2 3.33 0 4 -.33 4 -2&#xA;0 -1.67 .67 -2 4 -2 3.33 0 4 -.33 4 -2 0 -1.33 .67 -2 2 -2 1.33 0 2 -.67 2&#xA;-2 0 -1.33 .67 -2 2 -2 1.33 0 2 -.67 2 -2 0 -1.33 .67 -2 2 -2 1.87 0 2 -.67&#xA;2 -10 0 -9.33 .13 -10 2 -10 1.87 0 2 -.67 2 -10 0 -9.33 .13 -10 2 -10 1.89&#xA;0 2 -.67 2 -12 0 -11.33 .11 -12 2 -12 1.83 0 2 -.67 2 -8 0 -7.33 .17 -8 2&#xA;-8 1.89 0 2 -.67 2 -12 0 -11.33 .11 -12 2 -12 1.87 0 2 -.67 2 -10 0 -9.33&#xA;.13 -10 2 -10 1.87 0 2 -.67 2 -10 0 -9.33 .13 -10 2 -10 1.83 0 2 -.67 2 -8&#xA;0 -7.33 .17 -8 2 -8 1.83 0 2 -.67 2 -8 0 -7.33 .17 -8 2 -8 1.78 0 2 -.67 2&#xA;-6 0 -5.33 .22 -6 2 -6 1.78 0 2 -.67 2 -6 0 -5.33 .22 -6 2 -6 1.83 0 2 -.67&#xA;2 -8 0 -7.33 .17 -8 2 -8 1.67 0 2 -.67 2 -4 0 -3.33 .33 -4 2 -4 1.67 0 2&#xA;-.67 2 -4 0 -3.33 -.33 -4 -2 -4 -1.33 0 -2 .67 -2 2 0 1.33 -.67 2 -2 2&#xA;-1.67 0 -2 .67 -2 4 0 2.99 -.4 4 -1.59 4 -.88 0 -1.83 .9 -2.12 2 -.29 1.11&#xA;-1.36 2 -2.41 2 -1.53 0 -1.88 .75 -1.88 4 l0 4 -4 0 -4 0 0 4 c0 3.33 -.33 4&#xA;-2 4 -1.29 0 -2 .67 -2 1.88 0 1.04 -.89 2.12 -2 2.41 -1.1 .29 -2 1.24 -2&#xA;2.12 0 .93 -.84 1.59 -2 1.59 -1.67 0 -2 .67 -2 4 0 3.33 -.33 4 -2 4 -1.29 0&#xA;-2 .67 -2 1.88 0 1.04 -.89 2.12 -2 2.41 -1.1 .29 -2 1.24 -2 2.12 0 .93 -.84&#xA;1.59 -2 1.59 -1.33 0 -2 .67 -2 2 0 1.33 -.67 2 -2 2 -1.67 0 -2 .67 -2 4 0&#xA;3.33 -.33 4 -2 4 -1.33 0 -2 .67 -2 2 0 1.16 -.67 2 -1.59 2 -.88 0 -1.83 .9&#xA;-2.12 2 -.29 1.11 -1.36 2 -2.41 2 -1.53 0 -1.88 .75 -1.88 4 0 3.33 -.33 4&#xA;-2 4 -1.33 0 -2 .67 -2 2 0 1.33 -.67 2 -2 2 -1.29 0 -2 .67 -2 1.88 0 1.04&#xA;-.89 2.12 -2 2.41 -1.1 .29 -2 1.24 -2 2.12 0 .93 -.84 1.59 -2 1.59 -1.33 0&#xA;-2 .67 -2 2 0 1.33 -.67 2 -2 2 -1.67 0 -2 .67 -2 4 0 3.33 -.33 4 -2 4 -1.29&#xA;0 -2 .67 -2 1.88 0 1.04 -.89 2.12 -2 2.41 -1.1 .29 -2 1.24 -2 2.12 0 .93&#xA;-.84 1.59 -2 1.59 -1.67 0 -2 .67 -2 4 0 3.33 -.33 4 -2 4 -1.33 0 -2 .67 -2&#xA;2 0 1.33 -.67 2 -2 2 -1.33 0 -2 .67 -2 2 0 1.16 -.67 2 -1.59 2 -.88 0 -1.83&#xA;.9 -2.12 2 -.29 1.11 -1.36 2 -2.41 2 -1.53 0 -1.88 .75 -1.88 4 0 3.33 -.33&#xA;4 -2 4 -1.33 0 -2 .67 -2 2 0 1.16 -.67 2 -1.59 2 -.88 0 -1.83 .9 -2.12 2&#xA;-.29 1.11 -1.36 2 -2.41 2 -1.22 0 -1.88 .71 -1.88 2 0 1.33 -.67 2 -2 2&#xA;-1.33 0 -2 .67 -2 2 0 1.33 -.67 2 -2 2 -1.67 0 -2 .67 -2 4 0 3.33 -.33 4 -2&#xA;4 -1.33 0 -2 .67 -2 2 0 1.33 -.67 2 -2 2 -1.67 0 -2 .67 -2 4 0 3.33 .33 4 2&#xA;4 1.83 0 2 .67 2 8 0 7.33 -.17 8 -2 8 -1.67 0 -2 .67 -2 4 0 3.33 -.33 4 -2&#xA;4 -1.33 0 -2 .67 -2 2 0 1.33 -.67 2 -2 2 -1.33 0 -2 .67 -2 2 0 1.63 -.67 2&#xA;-3.59 2 -2.75 0 -3.72 .47 -4.12 2 -.41 1.57 -1.36 2 -4.41 2 -3.22 0 -3.88&#xA;-.34 -3.88 -2 0 -1.78 -.67 -2 -6 -2 -4.82 0 -6 -.31 -6 -1.59 0 -.88 -.9&#xA;-1.83 -2 -2.12 -1.11 -.29 -2 -1.36 -2 -2.41 0 -1.22 -.71 -1.88 -2 -1.88&#xA;-1.67 0 -2 -.67 -2 -4 0 -3.33 -.33 -4 -2 -4 -1.83 0 -2 -.67 -2 -8 0 -7.33&#xA;.17 -8 2 -8 1.67 0 2 -.67 2 -4 0 -3.33 .33 -4 2 -4 1.33 0 2 -.67 2 -2 0&#xA;-1.33 .67 -2 2 -2 1.33 0 2 -.67 2 -2 0 -1.89 .67 -2 12 -2 11.33 0 12 -.11&#xA;12 -2 0 -1.33 .67 -2 2 -2 1.33 0 2 -.67 2 -2 0 -1.33 .67 -2 2 -2 1.33 0 2&#xA;-.67 2 -2 0 -1.33 .67 -2 2 -2 1.67 0 2 -.67 2 -4 0 -3.33 .33 -4 2 -4 1.33 0&#xA;2 -.67 2 -2 0 -1.33 .67 -2 2 -2 1.33 0 2 -.67 2 -2 0 -1.33 .67 -2 2 -2 1.33&#xA;0 2 -.67 2 -2 0 -1.33 .67 -2 2 -2 1.33 0 2 -.67 2 -2 0 -1.33 .67 -2 2 -2&#xA;1.67 0 2 -.67 2 -4 0 -3.33 .33 -4 2 -4 1.33 0 2 -.67 2 -2 0 -1.33 .67 -2 2&#xA;-2 1.33 0 2 -.67 2 -2 0 -1.33 .67 -2 2 -2 1.33 0 2 -.67 2 -2 0 -1.33 .67 -2&#xA;2 -2 1.67 0 2 -.67 2 -4 0 -3.33 .33 -4 2 -4 1.33 0 2 -.67 2 -2 0 -1.33 .67&#xA;-2 2 -2 1.33 0 2 -.67 2 -2 0 -1.33 .67 -2 2 -2 1.33 0 2 -.67 2 -2 0 -1.33&#xA;.67 -2 2 -2 1.33 0 2 -.67 2 -2 0 -1.33 .67 -2 2 -2 1.67 0 2 -.67 2 -4 0&#xA;-3.33 .33 -4 2 -4 1.33 0 2 -.67 2 -2 0 -1.33 .67 -2 2 -2 1.33 0 2 -.67 2 -2&#xA;0 -1.33 .67 -2 2 -2 1.67 0 2 -.67 2 -4 0 -3.33 .33 -4 2 -4 1.33 0 2 -.67 2&#xA;-2 0 -1.33 .67 -2 2 -2 1.33 0 2 -.67 2 -2 0 -1.33 .67 -2 2 -2 1.33 0 2 -.67&#xA;2 -2 0 -1.33 .67 -2 2 -2 1.67 0 2 -.67 2 -4 0 -3.33 .33 -4 2 -4 1.33 0 2&#xA;-.67 2 -2 0 -1.33 .67 -2 2 -2 1.33 0 2 -.67 2 -2 0 -1.33 .67 -2 2 -2 1.33 0&#xA;2 -.67 2 -2 0 -1.33 .67 -2 2 -2 1.33 0 2 -.67 2 -2 0 -1.33 .67 -2 2 -2 1.33&#xA;0 2 -.67 2 -2 0 -1.33 .67 -2 2 -2 1.67 0 2 -.67 2 -4 0 -3.33 .33 -4 2 -4&#xA;1.33 0 2 -.67 2 -2 0 -1.33 .67 -2 2 -2 1.33 0 2 -.67 2 -2 0 -1.33 .67 -2 2&#xA;-2 1.33 0 2 -.67 2 -2 0 -1.33 .67 -2 2 -2 1.67 0 2 -.67 2 -4 0 -3.33 -.33&#xA;-4 -2 -4 -1.33 0 -2 .67 -2 2z M1488 1262 c0 1.33 -.67 2 -2 2 -1.98 0 -2 .67&#xA;-2 76 l0 76 6 0 6 0 0 -10 c0 -9.33 .13 -10 2 -10 1.87 0 2 -.67 2 -10 0&#xA;-9.33 -.13 -10 -2 -10 -1.78 0 -2 -.67 -2 -6 0 -5.33 .22 -6 2 -6 1.94 0 2&#xA;-.67 2 -24 0 -23.33 -.06 -24 -2 -24 -1.78 0 -2 -.67 -2 -6 0 -5.33 .22 -6 2&#xA;-6 1.93 0 2 -.67 2 -20 l0 -20 -4 0 c-3.33 0 -4 -.33 -4 -2 0 -1.33 -.67 -2&#xA;-2 -2 -1.33 0 -2 .67 -2 2z M1668 1320 c0 59.33 .02 60 2 60 1.63 0 2 .67 2&#xA;3.59 0 2.75 .47 3.72 2 4.12 1.57 .41 2 1.36 2 4.41 0 3.22 .34 3.88 2 3.88&#xA;1.33 0 2 .67 2 2 0 1.33 .67 2 2 2 1.33 0 2 .67 2 2 0 1.29 .67 2 1.88 2 1.04&#xA;0 2.12 .89 2.41 2 .29 1.1 1.24 2 2.12 2 .93 0 1.59 .84 1.59 2 0 1.78 .67 2&#xA;6 2 5.33 0 6 .22 6 2 0 1.93 .67 2 20 2 19.33 0 20 -.07 20 -2 0 -1.67 .67 -2&#xA;4 -2 3.33 0 4 -.33 4 -2 0 -1.67 .67 -2 4 -2 3.33 0 4 -.33 4 -2 0 -1.33 .67&#xA;-2 2 -2 1.33 0 2 -.67 2 -2 0 -1.33 .67 -2 2 -2 1.67 0 2 -.67 2 -4 0 -3.33&#xA;.33 -4 2 -4 1.67 0 2 -.67 2 -4 0 -3.33 .33 -4 2 -4 1.78 0 2 -.67 2 -6 0&#xA;-5.33 .22 -6 2 -6 1.87 0 2 -.67 2 -10 0 -9.33 -.13 -10 -2 -10 -1.78 0 -2&#xA;-.67 -2 -6 0 -5.33 -.22 -6 -2 -6 -1.67 0 -2 -.67 -2 -4 0 -3.33 -.33 -4 -2&#xA;-4 -1.67 0 -2 -.67 -2 -4 0 -3.33 -.33 -4 -2 -4 -1.33 0 -2 -.67 -2 -2 0&#xA;-1.33 -.67 -2 -2 -2 -1.33 0 -2 -.67 -2 -2 0 -1.67 -.67 -2 -4 -2 -3.33 0 -4&#xA;-.33 -4 -2 0 -1.67 -.67 -2 -4 -2 -3.33 0 -4 -.33 -4 -2 0 -1.92 -.67 -2&#xA;-17.59 -2 -16.75 0 -17.62 .1 -18.12 2 -.45 1.71 -1.36 2 -6.41 2 -5.22 0&#xA;-5.88 .23 -5.88 2 0 1.33 -.67 2 -2 2 -1.67 0 -2 .67 -2 4 l0 4 -4 0 -4 0 0&#xA;-30 c0 -29.33 -.04 -30 -2 -30 -1.33 0 -2 -.67 -2 -2 0 -1.78 -.67 -2 -6 -2&#xA;l-6 0 0 60z m60 2 c0 1.83 .67 2 8 2 7.33 0 8 .17 8 2 0 1.33 .67 2 2 2 1.33&#xA;0 2 .67 2 2 0 1.33 .67 2 2 2 1.33 0 2 .67 2 2 0 1.33 .67 2 2 2 1.16 0 2 .67&#xA;2 1.59 0 .88 .9 1.83 2 2.12 1.71 .45 2 1.36 2 6.41 0 5.22 .23 5.88 2 5.88&#xA;1.89 0 2 .67 2 11.88 0 11.04 -.14 11.92 -2 12.41 -1.53 .4 -2 1.36 -2 4.12 0&#xA;2.62 -.43 3.59 -1.59 3.59 -.88 0 -1.83 .9 -2.12 2 -.29 1.11 -1.36 2 -2.41 2&#xA;-1.22 0 -1.88 .71 -1.88 2 0 1.33 -.67 2 -2 2 -1.33 0 -2 .67 -2 2 0 1.33&#xA;-.67 2 -2 2 -1.33 0 -2 .67 -2 2 0 1.67 -.67 2 -4 2 -3.33 0 -4 .33 -4 2 0&#xA;1.9 -.67 2 -13.88 2 -13.04 0 -13.92 -.12 -14.41 -2 -.4 -1.52 -1.36 -2 -4 -2&#xA;-2.64 0 -3.6 -.48 -4 -2 -.29 -1.1 -1.24 -2 -2.12 -2 -.93 0 -1.59 -.84 -1.59&#xA;-2 0 -1.33 -.67 -2 -2 -2 -1.33 0 -2 -.67 -2 -2 0 -1.33 -.67 -2 -2 -2 -1.78&#xA;0 -2 -.67 -2 -6 0 -5.33 -.22 -6 -2 -6 -1.9 0 -2 -.67 -2 -14 0 -13.33 .1 -14&#xA;2 -14 1.67 0 2 -.67 2 -4 0 -3.33 .33 -4 2 -4 1.67 0 2 -.67 2 -4 0 -3.33 .33&#xA;-4 2 -4 1.33 0 2 -.67 2 -2 0 -1.67 .67 -2 4 -2 3.33 0 4 -.33 4 -2 0 -1.78&#xA;.67 -2 6 -2 5.33 0 6 -.22 6 -2 0 -1.78 .67 -2 6 -2 5.33 0 6 .22 6 2z M1384&#xA;1310 c0 1.63 -.67 2 -3.59 2 -2.75 0 -3.72 .47 -4.12 2 -.41 1.57 -1.36 2&#xA;-4.41 2 -3.22 0 -3.88 .34 -3.88 2 0 1.16 -.67 2 -1.59 2 -.88 0 -1.82 .86&#xA;-2.09 1.91 -.27 1.05 -1.36 2.13 -2.41 2.41 -1.05 .27 -1.91 1.22 -1.91 2.09&#xA;0 .93 -.84 1.59 -2 1.59 -1.66 0 -2 .67 -2 3.88 0 3.04 -.43 4 -2 4.41 -1.53&#xA;.4 -2 1.36 -2 4.12 0 2.93 -.37 3.59 -2 3.59 -1.93 0 -2 .67 -2 18 0 17.33&#xA;.07 18 2 18 1.63 0 2 .67 2 3.59 0 2.75 .47 3.72 2 4.12 1.57 .41 2 1.36 2&#xA;4.41 0 3.22 .34 3.88 2 3.88 1.16 0 2 .67 2 1.59 0 .88 .9 1.83 2 2.12 1.11&#xA;.29 2 1.36 2 2.41 0 1.22 .71 1.88 2 1.88 1.16 0 2 .67 2 1.59 0 .88 .9 1.83&#xA;2 2.12 1.11 .29 2 1.36 2 2.41 0 1.64 .79 1.88 6 1.88 5.33 0 6 .22 6 2 0&#xA;1.93 .67 2 20 2 19.33 0 20 -.07 20 -2 0 -1.67 .67 -2 4 -2 3.33 0 4 -.33 4&#xA;-2 0 -1.67 .67 -2 4 -2 3.33 0 4 -.33 4 -2 0 -1.33 .67 -2 2 -2 1.33 0 2 -.67&#xA;2 -2 0 -1.33 .67 -2 2 -2 1.33 0 2 -.67 2 -2 0 -1.35 .67 -2 2.05 -2 1.86 0&#xA;2.02 -.52 1.75 -5.75 l-.3 -5.75 -5.75 -.3 c-5.23 -.27 -5.75 -.11 -5.75 1.75&#xA;0 1.38 -.65 2.05 -2 2.05 -1.33 0 -2 .67 -2 2 0 1.33 -.67 2 -2 2 -1.33 0 -2&#xA;.67 -2 2 0 1.67 -.67 2 -4 2 -3.33 0 -4 .33 -4 2 0 1.67 -.67 2 -4 2 -3.33 0&#xA;-4 .33 -4 2 0 1.9 -.67 2 -14 2 -13.33 0 -14 -.1 -14 -2 0 -1.66 -.67 -2&#xA;-3.88 -2 -3.04 0 -4 -.43 -4.41 -2 -.29 -1.1 -1.24 -2 -2.12 -2 -.93 0 -1.59&#xA;-.84 -1.59 -2 0 -1.29 -.67 -2 -1.88 -2 -1.04 0 -2.12 -.89 -2.41 -2 -.29&#xA;-1.1 -1.24 -2 -2.12 -2 -1.19 0 -1.59 -1.01 -1.59 -4 0 -3.33 -.33 -4 -2 -4&#xA;-1.83 0 -2 -.67 -2 -8 0 -7.33 -.17 -8 -2 -8 -1.67 0 -2 -.67 -2 -4 0 -3.33&#xA;.33 -4 2 -4 1.78 0 2 -.67 2 -6 0 -5.33 .22 -6 2 -6 1.67 0 2 -.67 2 -4 0&#xA;-3.33 .33 -4 2 -4 1.33 0 2 -.67 2 -2 0 -1.33 .67 -2 2 -2 1.33 0 2 -.67 2 -2&#xA;0 -1.67 .67 -2 4 -2 3.33 0 4 -.33 4 -2 0 -1.83 .67 -2 8 -2 7.33 0 8 -.17 8&#xA;-2 0 -1.67 .67 -2 4 -2 3.33 0 4 .33 4 2 0 1.83 .67 2 8 2 7.33 0 8 .17 8 2 0&#xA;1.33 .67 2 2 2 1.33 0 2 .67 2 2 0 1.33 .67 2 2 2 1.33 0 2 .67 2 2 0 1.33&#xA;.67 2 2 2 1.33 0 2 .67 2 2 0 1.33 .67 2 2 2 1.33 0 2 .67 2 2 0 1.78 .67 2 6&#xA;2 l6 0 0 -6 c0 -5.33 -.22 -6 -2 -6 -1.67 0 -2 -.67 -2 -4 l0 -4 -4 0 -4 0 0&#xA;-4 0 -4 -4 0 c-3.33 0 -4 -.33 -4 -2 0 -1.67 -.67 -2 -4 -2 -3.33 0 -4 -.33&#xA;-4 -2 0 -1.93 -.67 -2 -20 -2 -19.33 0 -20 .07 -20 2z M1536.31 1309.91 c-.27&#xA;1.05 -1.36 2.13 -2.41 2.41 -1.82 .48 -1.91 1.82 -1.91 30.09 0 28.93 .05&#xA;29.59 2 29.59 1.83 0 2 .67 2 8 0 7.33 .17 8 2 8 1.63 0 2 .67 2 3.59 0 2.75&#xA;.47 3.72 2 4.12 1.57 .41 2 1.36 2 4.41 0 3.22 .34 3.88 2 3.88 1.33 0 2 .67&#xA;2 2 0 1.66 .67 2 3.88 2 3.04 0 4 .43 4.41 2 .4 1.53 1.36 2 4.12 2 2.93 0&#xA;3.59 .37 3.59 2 0 1.93 .67 2 20 2 19.33 0 20 -.07 20 -2 0 -1.78 .67 -2 6 -2&#xA;5.33 0 6 -.22 6 -2 0 -1.33 .67 -2 2 -2 1.33 0 2 -.67 2 -2 0 -1.33 .67 -2 2&#xA;-2 1.33 0 2 -.67 2 -2 0 -1.33 .67 -2 2 -2 1.67 0 2 -.67 2 -4 0 -3.33 .33 -4&#xA;2 -4 1.78 0 2 -.67 2 -6 0 -5.35 .22 -6 2.01 -6 1.98 0 2.01 -.5 1.75 -35.75&#xA;l-.26 -35.75 -5.33 -.31 c-4.67 -.27 -5.4 -.05 -5.87 1.75 -.3 1.16 -1.36&#xA;2.06 -2.42 2.06 -1.81 0 -1.88 1.37 -1.88 34 0 33.33 -.04 34 -2 34 -1.67 0&#xA;-2 .67 -2 4 0 3.33 -.33 4 -2 4 -1.67 0 -2 .67 -2 4 l0 4 -4 0 c-3.33 0 -4&#xA;.33 -4 2 0 1.67 -.67 2 -4 2 -3.33 0 -4 .33 -4 2 0 1.89 -.67 2 -12 2 -11.33&#xA;0 -12 -.11 -12 -2 0 -1.66 -.67 -2 -3.88 -2 -3.04 0 -4 -.43 -4.41 -2 -.29&#xA;-1.1 -1.24 -2 -2.12 -2 -.93 0 -1.59 -.84 -1.59 -2 0 -1.29 -.67 -2 -1.88 -2&#xA;-1.04 0 -2.12 -.89 -2.41 -2 -.29 -1.1 -1.24 -2 -2.12 -2 -1.28 0 -1.59 -1.18&#xA;-1.59 -6 0 -5.33 -.22 -6 -2 -6 -1.96 0 -2 -.67 -2 -34 l0 -34 -5.59 0 c-4.66&#xA;0 -5.68 .32 -6.09 1.91z M1300 1393.88 c0 1.04 -.89 2.12 -2 2.41 -1.78 .47&#xA;-2 1.36 -2 8.12 0 6.93 .18 7.59 2 7.59 1.33 0 2 .67 2 2 0 1.83 .67 2 8 2&#xA;7.33 0 8 -.17 8 -2 0 -1.33 .67 -2 2 -2 1.83 0 2 -.67 2 -8 l0 -8 -3.88 0&#xA;c-3.04 0 -4 -.43 -4.41 -2 -.44 -1.7 -1.36 -2 -6.12 -2 -4.81 0 -5.59 .26&#xA;-5.59 1.88z" fill="#f1b54a" fill-rule="evenodd" stroke="#f1b54a" stroke-linejoin="round" stroke-width="0.80"/>
<path d="M396 1222.46 c0 .85 -.68 1.54 -1.5 1.54 -1.32 0 -1.5 11.11 -1.5 94 l0 94&#xA;8.9 0 8.9 0 .35 -43.25 .35 -43.25 2.25 -2.25 c1.24 -1.24 2.25 -3.09 2.25&#xA;-4.12 0 -1.03 1.6 -3.62 3.57 -5.75 1.96 -2.13 3.82 -5.11 4.12 -6.63 .4&#xA;-1.99 1.16 -2.75 2.75 -2.75 1.2 0 3.08 -.79 4.16 -1.75 3.11 -2.75 10.42&#xA;-6.1 16.15 -7.4 2.89 -.65 5.25 -1.56 5.25 -2.02 0 -.46 1.8 -.83 4 -.83 2.2&#xA;0 4 .45 4 1 0 .55 1.09 1 2.42 1 3.96 0 12.97 2.32 14.4 3.71 .73 .71 2.43&#xA;1.57 3.79 1.91 2.58 .65 10.71 8.16 11.73 10.84 .33 .85 1.28 1.55 2.12 1.55&#xA;.97 0 1.53 .92 1.53 2.5 0 1.38 .9 3.4 2 4.5 1.18 1.18 2 3.34 2.01 5.25 .01&#xA;5.36 1.9 15.22 2.98 15.58 .66 .22 1.01 12.91 1.01 36.25 0 35.25 .04 35.92 2&#xA;35.92 1.1 0 2 .45 2 1 0 .55 1.8 1 4 1 2.2 0 4 -.45 4 -1 0 -.55 .69 -1 1.53&#xA;-1 1.35 0 1.5 -5.01 1.25 -43.67 -.22 -33.84 -.56 -43.76 -1.53 -44.08 -.69&#xA;-.23 -1.26 -2.05 -1.26 -4.08 -.02 -5.14 -.98 -8.17 -2.6 -8.17 -.87 0 -1.38&#xA;-1.11 -1.38 -2.99 0 -1.91 -.72 -3.44 -2 -4.24 -1.1 -.69 -2 -1.91 -2 -2.72 0&#xA;-2.1 -8.07 -10.05 -10.21 -10.05 -.99 0 -1.79 -.69 -1.79 -1.53 0 -.84 -.75&#xA;-1.82 -1.67 -2.17 -.92 -.35 -2.5 -1.46 -3.5 -2.47 -1 -1 -2.95 -1.83 -4.33&#xA;-1.83 -1.38 0 -2.5 -.41 -2.5 -.9 0 -1.64 -6.19 -3.1 -13.15 -3.1 -3.9 0&#xA;-6.85 -.43 -6.85 -1 0 -.55 -1.8 -1 -4 -1 -2.2 0 -4 .45 -4 1 0 .56 -2.81 1&#xA;-6.42 1 -3.53 0 -7.13 .27 -8 .61 -.87 .33 -1.58 1.23 -1.58 2 0 .91 -1.15&#xA;1.39 -3.36 1.39 -1.97 0 -4.98 1.09 -7.25 2.61 -2.14 1.44 -6.21 4.97 -9.04&#xA;7.85 -2.83 2.88 -5.87 5.52 -6.75 5.85 -.88 .34 -1.69 .52 -1.8 .4 -.11 -.12&#xA;-.45 -17.99 -.75 -39.72 l-.55 -39.5 -7.25 -.29 c-6 -.24 -7.25 -.03 -7.25&#xA;1.25z M640 1222.46 c0 .85 -.67 1.54 -1.5 1.54 -1.32 0 -1.5 10.76 -1.5 90.88&#xA;0 49.98 .28 92.28 .62 94 .53 2.63 1.08 3.12 3.5 3.12 1.58 0 2.88 .45 2.88 1&#xA;0 .55 .9 1 2 1 1.1 0 2 -.45 2 -1 0 -.55 1.58 -1 3.51 -1 l3.51 0 -.26 -95.25&#xA;-.26 -95.25 -7.25 -.29 c-6 -.24 -7.25 -.03 -7.25 1.25z M708 1316.5 c0 94.83&#xA;.01 95.5 2 95.5 1.1 0 2 .47 2 1.05 0 .64 2.05 .93 5.25 .75 l5.25 -.3 .61&#xA;-45.5 c.34 -25.03 .67 -67.8 .75 -95.05 .1 -37.36 -.16 -49.85 -1.06 -50.75&#xA;-.7 -.7 -4.04 -1.2 -8 -1.2 l-6.8 0 0 95.5z M570.61 1229.16 c-1.04 .6 -2.95&#xA;2.02 -4.25 3.15 -2.07 1.8 -2.36 2.94 -2.36 9.19 0 6.56 .23 7.36 2.89 9.9&#xA;3.59 3.44 9.99 4.59 12.36 2.21 .88 -.88 2.28 -1.61 3.11 -1.61 .82 0 2.43&#xA;-1.19 3.57 -2.63 1.46 -1.86 2.07 -4.09 2.07 -7.6 0 -3.35 -.65 -5.87 -1.99&#xA;-7.75 -1.96 -2.76 -8.43 -6.05 -11.78 -5.99 -.95 .02 -2.58 .52 -3.62 1.13z&#xA;M288 1278.9 c0 .5 -4.09 1.06 -9.08 1.25 -7.22 .28 -9.34 .71 -10.36 2.1 -.7&#xA;.96 -2.51 1.75 -4.02 1.75 -3.28 0 -12.53 4.98 -12.54 6.75 -0 .69 -.9 1.25&#xA;-2 1.25 -1.33 0 -2 .67 -2 2 0 1.33 -.67 2 -2 2 -1.33 0 -2 .67 -2 2 0 1.33&#xA;-.67 2 -2 2 -1.33 0 -2 .67 -2 2 0 1.13 -.67 2 -1.53 2 -.84 0 -1.82 .75&#xA;-2.17 1.67 -.35 .92 -1.46 2.5 -2.47 3.5 -1 1 -1.83 2.73 -1.83 3.83 0 1.1&#xA;-.9 2.9 -2 4 -1.36 1.36 -2 3.33 -2 6.14 -0 2.79 -.57 4.56 -1.75 5.42 -1.51&#xA;1.1 -1.8 3.41 -2.1 16.55 -.22 9.63 .11 17.42 .89 21.08 .68 3.19 1.62 5.81&#xA;2.1 5.81 .47 0 .86 1.09 .86 2.42 0 3.45 .99 5.58 2.61 5.58 .82 0 1.39 1.03&#xA;1.39 2.5 0 1.38 .82 3.32 1.83 4.33 1 1 2.12 2.58 2.47 3.5 .35 .92 1.33 1.67&#xA;2.17 1.67 .86 0 1.53 .87 1.53 2 0 1.33 .67 2 2 2 1.33 0 2 .67 2 2 0 1.33&#xA;.67 2 2 2 1.33 0 2 .67 2 2 0 1.33 .67 2 2 2 1.1 0 2 .56 2 1.25 0 1.87 9.33&#xA;6.75 12.9 6.75 1.71 0 3.1 .41 3.1 .9 0 1.46 5.91 3.1 11.15 3.1 2.67 0 4.85&#xA;.45 4.85 1 0 .58 3.33 1 8 1 4.4 0 8 -.39 8 -.87 0 -.48 3.26 -1.08 7.25&#xA;-1.33 3.99 -.26 8.82 -1.16 10.75 -2.01 1.93 -.85 4.96 -2.11 6.75 -2.79 1.79&#xA;-.68 3.25 -1.63 3.25 -2.12 0 -.48 .72 -.88 1.6 -.88 .88 0 3.02 -.97 4.75&#xA;-2.15 1.73 -1.18 6.42 -5.49 10.4 -9.58 4.25 -4.36 7.25 -8.28 7.25 -9.49 0&#xA;-1.13 .63 -2.56 1.4 -3.17 .77 -.61 1.7 -2.12 2.07 -3.36 .54 -1.81 .16 -2.44&#xA;-1.96 -3.25 -1.45 -.55 -5.25 -1 -8.45 -1 -5.08 0 -6.02 .31 -7.43 2.46 -.89&#xA;1.36 -1.62 3.1 -1.62 3.88 0 .78 -.9 1.65 -2 1.94 -1.1 .29 -2 1.19 -2 2 0&#xA;.81 -.9 1.71 -2 2 -1.1 .29 -2 1.24 -2 2.12 0 .89 -.83 1.59 -1.87 1.59 -1.03&#xA;0 -2.94 .84 -4.25 1.86 -1.31 1.02 -4.07 2.46 -6.13 3.2 -2.06 .74 -3.75 1.64&#xA;-3.75 2.01 0 .37 -2.23 .97 -4.96 1.33 -2.73 .36 -5.62 1.32 -6.43 2.13 -1.04&#xA;1.04 -3.71 1.47 -9.04 1.47 -5.76 0 -7.57 -.33 -7.57 -1.38 0 -1.43 -4.16&#xA;-2.62 -9.13 -2.62 -1.88 0 -2.87 -.52 -2.87 -1.49 0 -.96 -1.41 -1.71 -4&#xA;-2.13 -2.3 -.37 -4 -1.2 -4 -1.94 0 -.72 -.85 -1.57 -1.88 -1.9 -2.85 -.91&#xA;-13.34 -12.6 -15.79 -17.61 -1.19 -2.44 -2.74 -6.79 -3.44 -9.68 -.7 -2.89&#xA;-1.64 -5.25 -2.08 -5.25 -.45 0 -.81 -5.4 -.81 -12 0 -6.6 .38 -12 .84 -12&#xA;.46 0 1.45 -2.59 2.21 -5.75 .75 -3.16 1.95 -6.34 2.66 -7.07 .71 -.73 1.59&#xA;-2.52 1.96 -3.99 .9 -3.58 16.57 -19.19 19.26 -19.19 1.14 0 2.91 -.83 3.92&#xA;-1.85 1.73 -1.73 4.18 -2.3 16.4 -3.81 2.61 -.32 4.75 -.98 4.75 -1.46 0 -.48&#xA;.9 -.87 2 -.87 1.1 0 2 .37 2 .82 0 .45 3.6 1.43 8 2.18 4.4 .74 8 1.63 8&#xA;1.98 0 .34 1.66 1.22 3.68 1.95 2.03 .73 4.58 2.17 5.69 3.2 1.1 1.03 3.05&#xA;1.87 4.32 1.87 1.45 0 2.31 .6 2.31 1.59 0 .88 .86 1.82 1.91 2.09 1.05 .27&#xA;2.13 1.36 2.41 2.41 .27 1.05 1.22 1.91 2.09 1.91 .95 0 1.59 .85 1.59 2.1 0&#xA;1.16 1.59 3.69 3.53 5.63 3.19 3.19 3.93 3.47 7.64 2.98 2.26 -.3 4.39 -.96&#xA;4.72 -1.45 .33 -.49 1.44 -1.21 2.46 -1.59 1.44 -.53 1.71 -1.3 1.2 -3.43&#xA;-.36 -1.51 -1.24 -3.19 -1.94 -3.74 -.7 -.55 -1.57 -2.18 -1.93 -3.61 -.7&#xA;-2.82 -12.2 -15.25 -17.34 -18.74 -1.73 -1.18 -3.87 -2.14 -4.75 -2.14 -.88 0&#xA;-1.6 -.38 -1.6 -.84 0 -1.37 -4.84 -3.16 -8.55 -3.16 -2.27 0 -3.45 -.47&#xA;-3.45 -1.38 0 -.76 -1.01 -1.65 -2.25 -1.99 -1.24 -.33 -5.74 -.61 -10 -.62&#xA;-4.49 -.01 -7.75 -.43 -7.75 -1.01 0 -.55 -1.8 -1 -4 -1 -2.2 0 -4 .41 -4 .9z&#xA;M1016 1279 c0 .59 -3.47 1 -8.42 1 -4.63 0 -9.13 .27 -10 .61 -.87 .33 -1.58&#xA;1.23 -1.58 2 0 .98 -1.32 1.39 -4.5 1.39 -3.17 0 -5.09 .59 -6.5 2 -1.1 1.1&#xA;-2.67 2 -3.5 2 -.83 0 -1.5 .89 -1.5 2 0 1.55 -.67 2 -2.94 2 -1.7 0 -3.5 .77&#xA;-4.25 1.82 -.72 1 -2.09 2.11 -3.06 2.47 -.96 .36 -1.75 1.34 -1.75 2.18 0&#xA;.84 -.69 1.53 -1.53 1.53 -.84 0 -1.82 .75 -2.17 1.67 -.35 .92 -1.46 2.5&#xA;-2.47 3.5 -1 1 -1.83 2.9 -1.83 4.21 0 1.54 -.71 2.57 -2 2.91 -1.53 .4 -2&#xA;1.36 -2 4.12 0 2.4 -.46 3.59 -1.39 3.59 -.77 0 -1.67 .71 -2 1.58 -.33 .87&#xA;-.61 3.53 -.61 5.92 0 2.58 -.51 4.5 -1.25 4.75 -.9 .3 -1.34 4.28 -1.58&#xA;14.08 -.29 11.92 -.13 13.67 1.25 13.67 1.27 0 1.58 1.25 1.58 6.5 0 5.17 .41&#xA;6.91 2 8.5 1.1 1.1 2 2.9 2 4 0 1.1 .83 2.83 1.86 3.86 1.02 1.02 2.15 3.04&#xA;2.52 4.5 .36 1.45 3.8 5.79 7.62 9.64 4.95 4.98 7.69 7 9.48 7 1.49 0 2.52&#xA;.57 2.52 1.4 0 1.9 9.25 6.6 12.98 6.6 1.66 0 3.02 .43 3.02 .95 0 1.5 6.92&#xA;3.04 13.75 3.04 3.5 0 6.25 .45 6.25 1.01 0 .55 .9 1 2 1 1.1 0 2 -.45 2 -1 0&#xA;-.58 3.19 -1 7.56 -1 7.92 0 16.44 -1.62 16.44 -3.12 0 -.48 1.11 -.88 2.47&#xA;-.88 3.58 0 13.53 -4.8 13.53 -6.53 0 -.88 .95 -1.47 2.37 -1.47 1.52 0 4.38&#xA;-1.97 8 -5.5 3.88 -3.78 5.63 -6.28 5.63 -8 0 -1.47 .57 -2.5 1.39 -2.5 1.51&#xA;0 2.84 -2.43 1.87 -3.4 -.33 -.33 -2.05 -.6 -3.82 -.6 -1.95 0 -3.45 -.6 -3.8&#xA;-1.5 -.76 -1.98 -7.64 -2.08 -7.64 -.12 0 .76 -.9 1.62 -2 1.91 -1.1 .29 -2&#xA;1.19 -2 2 0 .81 -.9 1.71 -2 2 -1.1 .29 -2 1.24 -2 2.12 0 1 -.86 1.59 -2.31&#xA;1.59 -1.27 0 -3.18 .8 -4.25 1.79 -1.07 .98 -3.51 2.42 -5.44 3.19 -1.92 .77&#xA;-3.72 1.68 -4 2.02 -.28 .34 -3.87 1.13 -7.98 1.75 -4.11 .62 -7.64 1.61&#xA;-7.83 2.19 -.19 .58 -2.85 1.06 -5.91 1.06 -3.77 0 -5.91 -.48 -6.67 -1.49&#xA;-.61 -.82 -3.36 -1.8 -6.1 -2.17 -2.74 -.37 -5.59 -1.27 -6.32 -2 -.73 -.73&#xA;-2.52 -1.63 -3.98 -1.99 -1.46 -.37 -3.53 -1.49 -4.62 -2.5 -1.08 -1.01 -3.01&#xA;-1.84 -4.28 -1.84 -1.45 0 -2.31 -.6 -2.31 -1.59 0 -.88 -.9 -1.83 -2 -2.12&#xA;-1.1 -.29 -2 -1.19 -2 -2 0 -.81 -.9 -1.71 -2 -2 -1.1 -.29 -2 -1.19 -2 -2 0&#xA;-.81 -.84 -2.67 -1.86 -4.13 -1.03 -1.46 -2.47 -4.34 -3.2 -6.4 -.74 -2.06&#xA;-1.7 -3.75 -2.14 -3.75 -.44 0 -.8 -2.87 -.8 -6.38 0 -5.77 .21 -6.44 2.25&#xA;-6.99 1.24 -.33 5.74 -.61 10 -.62 4.49 -.01 7.75 -.43 7.75 -1.01 0 -.61&#xA;4.67 -1 12 -1 7.33 0 12 .39 12 1 0 .55 1.8 1 4 1 2.2 0 4 -.45 4 -1 0 -.62&#xA;5.33 -1 14 -1 8.67 0 14 .38 14 1 0 .56 2.67 1 6 1 3.33 0 6 -.44 6 -1 0 -.62&#xA;5.33 -1 14 -1 l14 0 -.02 -7.75 c-.03 -8.19 -1.21 -15.14 -2.76 -16.15 -.51&#xA;-.33 -1.17 -2.83 -1.47 -5.54 -.31 -2.85 -1.22 -5.43 -2.14 -6.11 -.88 -.64&#xA;-1.6 -2.13 -1.6 -3.31 0 -1.18 -.82 -2.96 -1.83 -3.97 -1 -1 -2.12 -2.58&#xA;-2.47 -3.5 -.35 -.92 -1.33 -1.67 -2.17 -1.67 -.86 0 -1.53 -.87 -1.53 -2 0&#xA;-1.33 -.67 -2 -2 -2 -1.27 0 -2 -.67 -2 -1.83 0 -2.24 -4.02 -6.17 -6.31&#xA;-6.17 -.93 0 -1.69 -.56 -1.69 -1.25 -0 -1.87 -9.33 -6.75 -12.9 -6.75 -1.97&#xA;0 -3.1 -.5 -3.1 -1.38 0 -.76 -1.01 -1.65 -2.25 -1.99 -1.24 -.33 -5.74 -.61&#xA;-10 -.62 -4.49 -.01 -7.75 -.43 -7.75 -1.01 0 -.55 -1.8 -1 -4 -1 -2.2 0 -4&#xA;.45 -4 1z m8 13.8 c0 .44 3.49 1.42 7.75 2.18 4.26 .76 8.37 1.99 9.12 2.75&#xA;.75 .75 2.67 1.63 4.25 1.95 1.58 .32 2.88 .89 2.88 1.28 0 1.16 8.7 7.04&#xA;10.41 7.04 1 0 1.59 .87 1.59 2.35 0 1.29 .89 3.15 1.97 4.13 1.09 .98 2.24&#xA;2.63 2.57 3.65 .33 1.03 1.24 1.87 2.03 1.87 .91 0 1.43 1.04 1.43 2.85 0&#xA;3.56 1.89 9.15 3.1 9.15 1.76 0 .87 2.94 -1.64 5.45 l-2.55 2.55 -49.45 0&#xA;-49.45 0 0 -6 c0 -3.3 .38 -6 .84 -6 .99 0 3.16 -6.78 3.16 -9.87 0 -1.25 .63&#xA;-2.13 1.53 -2.13 .84 0 1.8 -.7 2.12 -1.55 1.13 -2.95 9.1 -9.97 14.7 -12.95&#xA;3.1 -1.65 5.64 -3.56 5.64 -4.25 0 -.69 1.01 -1.25 2.25 -1.25 4.27 0 17.76&#xA;-2.45 17.76 -3.22 0 -.43 1.8 -.78 4 -.78 2.2 0 4 .36 4 .8z M1188 1279 c0&#xA;.58 -3.26 1.01 -7.75 1.01 -4.26 .01 -8.76 .28 -10 .62 -1.24 .33 -2.25 1.23&#xA;-2.25 1.99 0 .9 -1.16 1.38 -3.3 1.38 -1.95 0 -5.23 1.22 -8 2.98 -2.58 1.64&#xA;-4.7 3.39 -4.7 3.88 0 .5 -.9 1.14 -2 1.43 -1.1 .29 -2 1.19 -2 2 0 .81 -.9&#xA;1.71 -2 2 -1.1 .29 -2 1.24 -2 2.12 0 .88 -.69 1.59 -1.53 1.59 -.84 0 -1.83&#xA;.79 -2.2 1.75 -.37 .96 -1.48 2.62 -2.47 3.69 -.99 1.07 -1.8 2.75 -1.8 3.75&#xA;0 1 -.9 2.71 -2 3.81 -1.41 1.41 -2 3.33 -2 6.5 0 3.14 -.41 4.5 -1.37 4.5&#xA;-.81 0 -1.62 1.54 -1.99 3.75 -.34 2.06 -.62 21.86 -.63 44 -.01 39.59 .02&#xA;40.25 1.99 40.25 1.1 0 2 .45 2 1 0 .55 1.8 1 4 1 2.2 0 4 -.45 4 -1 0 -.55&#xA;.9 -1 2 -1 1.96 0 2 -.67 2 -38 0 -20.9 .36 -38 .8 -38 .44 0 1.34 -2.61 2&#xA;-5.81 .66 -3.2 1.2 -6.57 1.2 -7.5 0 -.93 .9 -2.59 2 -3.69 1.1 -1.1 2 -3.12&#xA;2 -4.5 0 -1.58 .56 -2.5 1.53 -2.5 .84 0 1.82 -.74 2.16 -1.65 .75 -1.95 6.23&#xA;-7.35 7.45 -7.35 .47 0 .85 -.62 .85 -1.38 0 -.76 1.3 -1.63 2.88 -1.95 1.58&#xA;-.32 3.58 -1.27 4.43 -2.12 .85 -.85 2.34 -1.55 3.31 -1.55 3.34 0 13.38 -2.4&#xA;13.38 -3.2 0 -.44 1.8 -.8 4 -.8 2.2 0 4 .36 4 .8 0 .44 2.61 1.34 5.81 2 3.2&#xA;.66 6.57 1.2 7.5 1.2 .93 0 2.59 .9 3.69 2 1.1 1.1 3.12 2 4.5 2 1.58 0 2.5&#xA;.56 2.5 1.53 0 .84 .74 1.82 1.65 2.16 1.95 .75 7.35 6.23 7.35 7.45 0 .47&#xA;.62 .85 1.38 .85 .76 0 1.63 1.3 1.95 2.88 .32 1.58 1.19 3.5 1.94 4.25 .75&#xA;.75 1.89 5.64 2.53 10.86 .64 5.22 1.62 9.65 2.19 9.83 .67 .22 1.02 12.66&#xA;1.02 36.26 0 35.25 .04 35.92 2 35.92 1.1 0 2 .45 2 1 0 .55 1.8 1 4 1 2.2 0&#xA;4 -.45 4 -1 0 -.55 .9 -1 2 -1 1.95 0 2 -.64 1.91 -24.75 -.13 -36.04 -1.23&#xA;-64.72 -2.54 -66.36 -.61 -.77 -1.42 -3.08 -1.79 -5.14 -.42 -2.31 -1.24&#xA;-3.75 -2.13 -3.75 -.94 0 -1.45 -1.03 -1.45 -2.94 0 -1.7 -.77 -3.5 -1.82&#xA;-4.25 -1 -.72 -2.11 -2.09 -2.47 -3.06 -.36 -.96 -1.34 -1.75 -2.18 -1.75&#xA;-.86 0 -1.53 -.87 -1.53 -2 0 -1.33 -.67 -2 -2 -2 -1.33 0 -2 -.67 -2 -2 0&#xA;-1.33 -.67 -2 -2 -2 -1.1 0 -2 -.56 -2 -1.25 -0 -1.87 -9.33 -6.75 -12.9&#xA;-6.75 -1.97 0 -3.1 -.5 -3.1 -1.38 0 -.76 -1.41 -1.66 -3.12 -2 -1.72 -.34&#xA;-7.12 -.62 -12 -.62 -5.25 0 -8.88 -.41 -8.88 -1 0 -.55 -.9 -1 -2 -1 -1.1 0&#xA;-2 .45 -2 1z M568 1346.5 c0 64.83 .02 65.5 2 65.5 1.1 0 2 .45 2 1 0 .55 1.8&#xA;1 4 1 2.2 0 4 -.45 4 -1 0 -.55 .9 -1 2 -1 1.98 0 2 -.67 2 -64.52 l0 -64.52&#xA;-2.57 -.98 c-1.41 -.54 -5.01 -.98 -8 -.98 l-5.43 0 0 65.5z" fill="#f3f1f1" fill-rule="evenodd" stroke="#f3f1f1" stroke-linejoin="round" stroke-width="0.80"/>
<path d="M840 1279 c0 .59 -3.47 1 -8.42 1 -4.63 0 -9.13 .27 -10 .61 -.87 .33 -1.58&#xA;1.23 -1.58 2 0 .98 -1.32 1.39 -4.5 1.39 -3.17 0 -5.09 .59 -6.5 2 -1.1 1.1&#xA;-2.67 2 -3.5 2 -.83 0 -1.5 .89 -1.5 2 0 1.55 -.67 2 -2.94 2 -1.7 0 -3.5 .77&#xA;-4.25 1.82 -.72 1 -2.09 2.11 -3.06 2.47 -.96 .36 -1.75 1.34 -1.75 2.18 0&#xA;.84 -.67 1.53 -1.5 1.53 -.83 0 -1.5 .38 -1.5 .84 0 .46 -1.12 2.15 -2.5 3.75&#xA;-1.37 1.6 -2.5 3.87 -2.5 5.04 -0 1.29 -.79 2.34 -2 2.66 -1.53 .4 -2 1.36 -2&#xA;4.12 0 2.4 -.46 3.59 -1.39 3.59 -.77 0 -1.67 .71 -2 1.58 -.33 .87 -.61 3.57&#xA;-.61 6 0 3.09 -.42 4.42 -1.38 4.42 -1.15 0 -1.45 11.11 -1.84 67.75 -.26&#xA;38.04 -.08 68.52 .41 69.5 .71 1.42 2.21 1.75 7.84 1.75 4.29 0 6.96 -.41&#xA;6.96 -1.07 0 -.59 .67 -1.75 1.5 -2.57 1.27 -1.27 1.5 -6.42 1.5 -33.8 0&#xA;-17.77 .27 -33.68 .61 -35.35 .42 -2.11 1.05 -2.88 2.05 -2.5 .79 .3 3.2 2.3&#xA;5.35 4.43 2.48 2.45 4.84 3.87 6.45 3.87 1.87 0 2.54 .53 2.54 2 0 1.33 .67 2&#xA;2 2 1.1 0 2 .38 2 .84 0 1.37 4.84 3.16 8.55 3.16 2.26 0 3.45 .47 3.45 1.38&#xA;0 .76 1.41 1.66 3.12 2 1.72 .34 9.93 .62 18.25 .62 14.66 -.01 22.62 -1.08&#xA;22.62 -3.04 0 -.52 1.12 -.95 2.48 -.95 3.3 0 13.52 -5.07 13.52 -6.71 0 -.71&#xA;.99 -1.29 2.2 -1.29 1.37 0 4.38 -2.24 8 -5.96 3.22 -3.31 5.8 -6.87 5.8 -8 0&#xA;-1.12 .62 -2.04 1.38 -2.04 .76 0 3.34 -3.94 5.75 -8.75 l4.38 -8.75 0 -22.5&#xA;0 -22.5 -4.28 -8.75 c-2.49 -5.1 -4.89 -8.75 -5.75 -8.75 -.82 0 -1.47 -.91&#xA;-1.47 -2.06 0 -2.87 -9.76 -12.94 -13.21 -13.63 -1.54 -.31 -2.79 -1.13 -2.79&#xA;-1.83 0 -1.8 -9.37 -6.48 -12.98 -6.48 -1.9 0 -3.02 -.51 -3.02 -1.38 0 -.76&#xA;-1.01 -1.65 -2.25 -1.99 -1.24 -.33 -5.74 -.61 -10 -.62 -4.49 -.01 -7.75&#xA;-.43 -7.75 -1.01 0 -.55 -1.8 -1 -4 -1 -2.2 0 -4 .45 -4 1z m8 13.8 c0 .8&#xA;10.04 3.2 13.38 3.2 .97 0 2.44 .67 3.26 1.5 .82 .82 2.7 1.8 4.18 2.16 1.47&#xA;.36 3.27 1.49 3.99 2.5 .76 1.07 2.53 1.84 4.25 1.84 2.38 0 2.95 .43 2.95&#xA;2.25 .01 1.24 1.72 4.05 3.81 6.25 2.09 2.2 4.1 4.79 4.46 5.75 .36 .96 1.35&#xA;1.75 2.19 1.75 1.02 0 1.53 .96 1.53 2.85 0 3.56 1.89 9.15 3.1 9.15 .5 0 .9&#xA;7.16 .9 16 0 8.84 -.4 16 -.9 16 -1.2 0 -3.1 5.59 -3.1 9.15 0 1.89 -.51 2.85&#xA;-1.53 2.85 -.84 0 -1.82 .79 -2.18 1.75 -.93 2.5 -12.25 14.1 -14.45 14.8&#xA;-1.01 .32 -1.84 1.23 -1.84 2.02 0 .86 -1 1.43 -2.5 1.43 -1.38 0 -3.4 .9&#xA;-4.5 2 -1.13 1.13 -3.33 2 -5.06 2 -4.16 0 -11.94 2.03 -11.94 3.12 0 1.22&#xA;-7.75 1.11 -8.17 -.11 -.18 -.55 -3.82 -1.55 -8.08 -2.23 -4.26 -.68 -7.75&#xA;-1.55 -7.75 -1.93 0 -.38 -1.69 -1.25 -3.75 -1.92 -2.06 -.67 -4.82 -2.06&#xA;-6.13 -3.08 -1.31 -1.02 -3.22 -1.85 -4.25 -1.85 -1.04 0 -1.87 -.71 -1.87&#xA;-1.59 0 -.88 -.9 -1.83 -2 -2.12 -1.1 -.29 -2 -1.19 -2 -2 0 -.81 -.9 -1.71&#xA;-2 -2 -1.1 -.29 -2 -1.19 -2 -2 0 -.81 -.82 -2.67 -1.83 -4.13 -1 -1.46 -2.44&#xA;-4.23 -3.19 -6.15 -.75 -1.92 -1.66 -3.72 -2.02 -4 -.36 -.28 -1.16 -5 -1.77&#xA;-10.5 -.82 -7.35 -.83 -12.58 -.01 -19.75 .61 -5.36 1.49 -9.75 1.97 -9.75&#xA;.47 0 .86 -.61 .86 -1.36 0 -.75 1.46 -4.2 3.25 -7.67 1.79 -3.47 5.1 -8.15&#xA;7.36 -10.39 2.26 -2.25 6.65 -5.43 9.75 -7.08 3.1 -1.65 5.64 -3.56 5.64&#xA;-4.25 0 -.71 1.26 -1.25 2.93 -1.25 4.1 0 13.08 -2.18 13.08 -3.17 0 -.46 2.7&#xA;-.83 6 -.83 3.3 0 6 .36 6 .8z" fill="url(#grad5)" fill-rule="evenodd" stroke="none"/>
</svg>