<svg xmlns="http://www.w3.org/2000/svg" viewBox="0 0 120 120" width="120" height="120">
  <defs>
    <radialGradient id="bg" cx="38%" cy="30%" r="92%">
      <stop offset="0" stop-color="#2c2116"/>
      <stop offset="0.55" stop-color="#14110d"/>
      <stop offset="1" stop-color="#070708"/>
    </radialGradient>
    <linearGradient id="gold" x1="0.5" y1="0" x2="0.5" y2="1">
      <stop offset="0" stop-color="#ffe9b8"/>
      <stop offset="0.4" stop-color="#f4cf84"/>
      <stop offset="0.78" stop-color="#dca03c"/>
      <stop offset="1" stop-color="#a9691d"/>
    </linearGradient>
    <linearGradient id="core" x1="0.5" y1="0" x2="0.5" y2="1">
      <stop offset="0" stop-color="#fff4d6"/>
      <stop offset="1" stop-color="#f0b64d"/>
    </linearGradient>
    <radialGradient id="halo" cx="50%" cy="52%" r="52%">
      <stop offset="0" stop-color="#e8b45a" stop-opacity="0.4"/>
      <stop offset="1" stop-color="#e8b45a" stop-opacity="0"/>
    </radialGradient>
  </defs>
  <circle cx="60" cy="60" r="60" fill="url(#bg)"/>
  <circle cx="60" cy="60" r="59" fill="url(#halo)"/>
  <circle cx="60" cy="60" r="58.5" fill="none" stroke="#e8b45a" stroke-opacity="0.45" stroke-width="1.5"/>
  <circle cx="60" cy="60" r="53.5" fill="none" stroke="#000" stroke-opacity="0.28" stroke-width="1"/>
  <!-- outer flame -->
  <path fill="url(#gold)" d="M60 24 C66 40 82 46 78 66 C75 82 68 90 60 93 C52 90 44 83 43 68 C42 56 50 50 55 45 C56 52 55 58 59 61 C64 55 63 42 60 24 Z"/>
  <!-- inner flame -->
  <path fill="url(#core)" d="M60 50 C63 58 70 62 67 73 C65 82 61 86 60 87 C58 85 53 82 53 73 C53 66 57 62 60 50 Z"/>
</svg>
