<svg xmlns="http://www.w3.org/2000/svg" viewBox="0 0 120 120" width="120" height="120">
  <defs>
    <radialGradient id="bg" cx="36%" cy="28%" r="85%">
      <stop offset="0" stop-color="#241a12"/>
      <stop offset="1" stop-color="#0a0a0d"/>
    </radialGradient>
    <linearGradient id="g" x1="0" y1="0" x2="0" y2="1">
      <stop offset="0" stop-color="#f6d489"/>
      <stop offset="1" stop-color="#d2922f"/>
    </linearGradient>
  </defs>
  <circle cx="60" cy="60" r="60" fill="url(#bg)"/>
  <circle cx="60" cy="60" r="58" fill="none" stroke="#e8b45a" stroke-opacity="0.4" stroke-width="2"/>
  <path fill="url(#g)" d="M60 28 c7 11 1 17 7 24 4 -2 5 -6 5 -11 7 6 10 13 10 21 a22 22 0 0 1 -44 0 c0 -9 5 -15 10 -21 c1 6 3 9 7 12 c-3 -10 -3 -17 5 -25 Z"/>
  <path fill="#0a0a0d" fill-opacity="0.35" d="M60 62 c4 4 5 8 0 13 c-5 -5 -4 -9 0 -13 Z"/>
</svg>
