<svg xmlns="http://www.w3.org/2000/svg" viewBox="0 0 120 120" width="120" height="120">
  <defs>
    <radialGradient id="bg" cx="38%" cy="30%" r="92%">
      <stop offset="0" stop-color="#2c2116"/>
      <stop offset="0.55" stop-color="#14110d"/>
      <stop offset="1" stop-color="#070708"/>
    </radialGradient>
    <linearGradient id="gold" x1="0.15" y1="0" x2="0.85" y2="1">
      <stop offset="0" stop-color="#ffe9b8"/>
      <stop offset="0.4" stop-color="#f4cf84"/>
      <stop offset="0.75" stop-color="#dca03c"/>
      <stop offset="1" stop-color="#a9691d"/>
    </linearGradient>
    <radialGradient id="halo" cx="50%" cy="46%" r="52%">
      <stop offset="0" stop-color="#e8b45a" stop-opacity="0.32"/>
      <stop offset="1" stop-color="#e8b45a" stop-opacity="0"/>
    </radialGradient>
    <mask id="crescent">
      <rect width="120" height="120" fill="black"/>
      <circle cx="55" cy="61" r="27" fill="white"/>
      <circle cx="71" cy="54" r="24" fill="black"/>
    </mask>
  </defs>
  <circle cx="60" cy="60" r="60" fill="url(#bg)"/>
  <circle cx="60" cy="60" r="59" fill="url(#halo)"/>
  <circle cx="60" cy="60" r="58.5" fill="none" stroke="#e8b45a" stroke-opacity="0.45" stroke-width="1.5"/>
  <circle cx="60" cy="60" r="53.5" fill="none" stroke="#000" stroke-opacity="0.28" stroke-width="1"/>
  <!-- crescent -->
  <rect width="120" height="120" fill="url(#gold)" mask="url(#crescent)"/>
  <!-- stars -->
  <path fill="url(#gold)" d="M83 41 l1.5 4 4 .6 -3 2.8 .8 4 -3.3 -2 -3.3 2 .8 -4 -3 -2.8 4 -.6 z"/>
  <circle cx="82" cy="66" r="2" fill="#f4cf84"/>
  <circle cx="70" cy="34" r="1.5" fill="#f4cf84"/>
  <circle cx="46" cy="30" r="1.2" fill="#f4cf84" fill-opacity="0.8"/>
</svg>
