<svg xmlns="http://www.w3.org/2000/svg" viewBox="0 0 120 120" width="120" height="120">
  <defs>
    <radialGradient id="bg" cx="38%" cy="30%" r="92%">
      <stop offset="0" stop-color="#2c2116"/>
      <stop offset="0.55" stop-color="#14110d"/>
      <stop offset="1" stop-color="#070708"/>
    </radialGradient>
    <linearGradient id="gold" x1="0.15" y1="0" x2="0.9" y2="1">
      <stop offset="0" stop-color="#ffe9b8"/>
      <stop offset="0.38" stop-color="#f4cf84"/>
      <stop offset="0.74" stop-color="#dca03c"/>
      <stop offset="1" stop-color="#a9691d"/>
    </linearGradient>
    <radialGradient id="halo" cx="50%" cy="46%" r="52%">
      <stop offset="0" stop-color="#e8b45a" stop-opacity="0.32"/>
      <stop offset="1" stop-color="#e8b45a" stop-opacity="0"/>
    </radialGradient>
  </defs>
  <circle cx="60" cy="60" r="60" fill="url(#bg)"/>
  <circle cx="60" cy="60" r="59" fill="url(#halo)"/>
  <circle cx="60" cy="60" r="58.5" fill="none" stroke="#e8b45a" stroke-opacity="0.45" stroke-width="1.5"/>
  <circle cx="60" cy="60" r="53.5" fill="none" stroke="#000" stroke-opacity="0.28" stroke-width="1"/>
  <!-- open book pages -->
  <g fill="url(#gold)">
    <path d="M60 44 C51 37 39 36 30 39 L30 82 C39 79 51 80 60 86 Z"/>
    <path d="M60 44 C69 37 81 36 90 39 L90 82 C81 79 69 80 60 86 Z"/>
  </g>
  <!-- spine shadow -->
  <path d="M60 44 L60 86" stroke="#7a4f16" stroke-opacity="0.7" stroke-width="2.4" stroke-linecap="round"/>
  <!-- page lines -->
  <g stroke="#5a3a10" stroke-opacity="0.5" stroke-width="1.3" stroke-linecap="round">
    <path d="M37 49 C44 47.5 51 48 56 50.5"/>
    <path d="M37 57 C44 55.5 51 56 56 58.5"/>
    <path d="M37 65 C44 63.5 51 64 56 66.5"/>
    <path d="M64 50.5 C69 48 76 47.5 83 49"/>
    <path d="M64 58.5 C69 56 76 55.5 83 57"/>
    <path d="M64 66.5 C69 64 76 63.5 83 65"/>
  </g>
  <!-- knowledge spark -->
  <path fill="url(#gold)" d="M60 20 l1.6 5.4 5.4 1.6 -5.4 1.6 -1.6 5.4 -1.6 -5.4 -5.4 -1.6 5.4 -1.6 z"/>
</svg>
